# Blender v2.76 (sub 0) OBJ File: 'table.blend'
# www.blender.org
v 0.000000 -0.099465 -0.574009
v 0.000000 1.907140 -0.574009
v 0.233470 -0.099465 -0.524383
v 0.233470 1.907140 -0.524383
v 0.426572 -0.099465 -0.384087
v 0.426572 1.907140 -0.384087
v 0.545915 -0.099465 -0.177379
v 0.545915 1.907140 -0.177379
v 0.570864 -0.099465 0.060000
v 0.570864 1.907140 0.060000
v 0.497106 -0.099465 0.287005
v 0.497106 1.907140 0.287005
v 0.337394 -0.099465 0.464383
v 0.337394 1.907140 0.464383
v 0.119343 -0.099465 0.561466
v 0.119343 1.907140 0.561466
v -0.119343 -0.099465 0.561465
v -0.119343 1.907140 0.561465
v -0.337394 -0.099465 0.464383
v -0.337394 1.907140 0.464383
v -0.497106 -0.099465 0.287004
v -0.497106 1.907140 0.287004
v -0.570864 -0.099465 0.060000
v -0.570864 1.907140 0.060000
v -0.545915 -0.099465 -0.177379
v -0.545915 1.907140 -0.177379
v -0.426572 -0.099465 -0.384087
v -0.426572 1.907140 -0.384087
v -0.233470 -0.099465 -0.524383
v -0.233470 1.907140 -0.524383
v 0.000000 0.903838 -0.724880
v 0.294835 0.903838 -0.662211
v 0.538691 0.903837 -0.485039
v 0.689402 0.903837 -0.224000
v 0.720909 0.903837 0.075771
v 0.627765 0.903837 0.362440
v 0.426074 0.903837 0.586440
v 0.150711 0.903837 0.709040
v -0.150711 0.903837 0.709040
v -0.426074 0.903837 0.586440
v -0.627765 0.903837 0.362440
v -0.720909 0.903837 0.075770
v -0.689402 0.903837 -0.224000
v -0.538691 0.903837 -0.485040
v -0.294835 0.903838 -0.662211
v 0.000000 -0.099465 -0.574009
v 0.233470 -0.099465 -0.524383
v 0.233470 1.907140 -0.524383
v 0.000000 1.907140 -0.574009
v 0.000000 0.903838 -0.724880
v 0.294835 0.903838 -0.662211
v 0.426572 -0.099465 -0.384087
v 0.426572 1.907140 -0.384087
v 0.538691 0.903837 -0.485039
v 0.545915 -0.099465 -0.177379
v 0.545915 1.907140 -0.177379
v 0.689402 0.903837 -0.224000
v 0.570864 -0.099465 0.060000
v 0.570864 1.907140 0.060000
v 0.720909 0.903837 0.075771
v 0.497106 -0.099465 0.287005
v 0.497106 1.907140 0.287005
v 0.627765 0.903837 0.362440
v 0.337394 -0.099465 0.464383
v 0.337394 1.907140 0.464383
v 0.426074 0.903837 0.586440
v 0.119343 -0.099465 0.561466
v 0.119343 1.907140 0.561466
v 0.150711 0.903837 0.709040
v -0.119343 -0.099465 0.561465
v -0.119343 1.907140 0.561465
v -0.150711 0.903837 0.709040
v -0.337394 -0.099465 0.464383
v -0.337394 1.907140 0.464383
v -0.426074 0.903837 0.586440
v -0.497106 -0.099465 0.287004
v -0.497106 1.907140 0.287004
v -0.627765 0.903837 0.362440
v -0.570864 -0.099465 0.060000
v -0.570864 1.907140 0.060000
v -0.720909 0.903837 0.075770
v -0.545915 -0.099465 -0.177379
v -0.545915 1.907140 -0.177379
v -0.689402 0.903837 -0.224000
v -0.426572 -0.099465 -0.384087
v -0.426572 1.907140 -0.384087
v -0.538691 0.903837 -0.485040
v -0.233470 -0.099465 -0.524383
v -0.233470 1.907140 -0.524383
v -0.294835 0.903838 -0.662211
v 0.000000 0.903838 -0.722178
v 0.293736 0.903838 -0.659742
v 0.536683 0.903838 -0.483231
v 0.686832 0.903838 -0.223165
v 0.718222 0.903838 0.075488
v 0.625424 0.903838 0.361089
v 0.424486 0.903838 0.584254
v 0.150149 0.903838 0.706397
v -0.150149 0.903838 0.706397
v -0.424486 0.903838 0.584254
v -0.625424 0.903838 0.361089
v -0.718222 0.903838 0.075488
v -0.686832 0.903838 -0.223165
v -0.536683 0.903838 -0.483231
v -0.293736 0.903838 -0.659742
v 0.000000 0.903838 -0.722178
v 0.293736 0.903838 -0.659742
v 0.536683 0.903838 -0.483231
v 0.686832 0.903838 -0.223165
v 0.718222 0.903838 0.075488
v 0.625424 0.903838 0.361089
v 0.424486 0.903838 0.584254
v 0.150149 0.903838 0.706397
v -0.150149 0.903838 0.706397
v -0.424486 0.903838 0.584254
v -0.625424 0.903838 0.361089
v -0.718222 0.903838 0.075488
v -0.686832 0.903838 -0.223165
v -0.536683 0.903838 -0.483231
v -0.293736 0.903838 -0.659742
v -0.272731 1.514256 -0.612563
v -0.498304 1.514256 -0.448675
v -0.637715 1.514256 -0.207206
v -0.666860 1.514256 0.070090
v -0.580699 1.514256 0.335267
v -0.394130 1.514256 0.542473
v -0.139412 1.514256 0.655881
v 0.139412 1.514256 0.655881
v 0.394130 1.514256 0.542473
v 0.580699 1.514256 0.335267
v 0.666860 1.514256 0.070090
v 0.637715 1.514256 -0.207206
v 0.498304 1.514256 -0.448675
v 0.272731 1.514256 -0.612563
v 0.000000 0.293419 -0.670534
v -0.272731 0.293419 -0.612563
v -0.498304 0.293419 -0.448675
v -0.637715 0.293419 -0.207206
v -0.666860 0.293419 0.070090
v -0.580699 0.293419 0.335267
v -0.394130 0.293419 0.542473
v -0.139412 0.293419 0.655881
v 0.139412 0.293419 0.655881
v 0.394130 0.293419 0.542473
v 0.580699 0.293419 0.335267
v 0.666860 0.293419 0.070090
v 0.637715 0.293419 -0.207206
v 0.498304 0.293419 -0.448675
v 0.272731 0.293419 -0.612563
v 0.000000 1.514256 -0.670534
v 0.000000 1.514256 -0.670534
v 0.272731 0.293419 -0.612563
v 0.498304 0.293419 -0.448675
v 0.637715 0.293419 -0.207206
v 0.666860 0.293419 0.070090
v 0.580699 0.293419 0.335267
v 0.394130 0.293419 0.542473
v 0.139412 0.293419 0.655881
v -0.139412 0.293419 0.655881
v -0.394130 0.293419 0.542473
v -0.580699 0.293419 0.335267
v -0.666860 0.293419 0.070090
v -0.637715 0.293419 -0.207206
v -0.498304 0.293419 -0.448675
v -0.272731 0.293419 -0.612563
v 0.000000 0.293419 -0.670534
v 0.272731 1.514256 -0.612563
v 0.498304 1.514256 -0.448675
v 0.637715 1.514256 -0.207206
v 0.666860 1.514256 0.070090
v 0.580699 1.514256 0.335267
v 0.394130 1.514256 0.542473
v 0.139412 1.514256 0.655881
v -0.139412 1.514256 0.655881
v -0.394130 1.514256 0.542473
v -0.580699 1.514256 0.335267
v -0.666860 1.514256 0.070090
v -0.637715 1.514256 -0.207206
v -0.498304 1.514256 -0.448675
v -0.272731 1.514256 -0.612563
v 0.000000 1.989454 -1.661889
v 0.675951 1.989454 -1.518211
v 1.235024 1.989454 -1.112021
v 1.580550 1.989454 -0.513552
v 1.652785 1.989454 0.173715
v 1.439238 1.989454 0.830945
v 0.976834 1.989454 1.344497
v 0.345526 1.989454 1.625573
v -0.345526 1.989454 1.625573
v -0.976834 1.989454 1.344496
v -1.439238 1.989454 0.830944
v -1.652785 1.989454 0.173715
v -1.580550 1.989454 -0.513552
v -1.235024 1.989454 -1.112021
v -0.675951 1.989454 -1.518211
v 0.675951 1.989454 -1.518211
v 0.000000 1.989454 -1.661889
v 1.235024 1.989454 -1.112021
v 1.580550 1.989454 -0.513552
v 1.652785 1.989454 0.173715
v 1.439238 1.989454 0.830945
v 0.976834 1.989454 1.344497
v 0.345526 1.989454 1.625573
v -0.345526 1.989454 1.625573
v -0.976834 1.989454 1.344496
v -1.439238 1.989454 0.830944
v -1.652785 1.989454 0.173715
v -1.580550 1.989454 -0.513552
v -1.235024 1.989454 -1.112021
v -0.675951 1.989454 -1.518211
v 0.000000 2.098547 -1.661889
v 0.675951 2.098547 -1.518211
v 1.235024 2.098547 -1.112021
v 1.580550 2.098547 -0.513552
v 1.652785 2.098547 0.173715
v 1.439238 2.098547 0.830945
v 0.976834 2.098547 1.344497
v 0.345526 2.098547 1.625573
v -0.345526 2.098547 1.625573
v -0.976834 2.098547 1.344496
v -1.439238 2.098547 0.830944
v -1.652785 2.098547 0.173715
v -1.580550 2.098547 -0.513552
v -1.235024 2.098547 -1.112021
v -0.675951 2.098547 -1.518211
v 0.675951 2.098547 -1.518211
v 0.000000 2.098547 -1.661889
v 1.235024 2.098547 -1.112021
v 1.580550 2.098547 -0.513552
v 1.652785 2.098547 0.173715
v 1.439238 2.098547 0.830945
v 0.976834 2.098547 1.344497
v 0.345526 2.098547 1.625573
v -0.345526 2.098547 1.625573
v -0.976834 2.098547 1.344496
v -1.439238 2.098547 0.830944
v -1.652785 2.098547 0.173715
v -1.580550 2.098547 -0.513552
v -1.235024 2.098547 -1.112021
v -0.675951 2.098547 -1.518211
vn 0.202200 0.233700 -0.951100
vn 0.571500 0.233700 -0.786600
vn 0.842100 0.233700 -0.486200
vn 0.967000 0.233700 -0.101600
vn 0.924700 0.233700 0.300500
vn 0.722600 0.233700 0.650600
vn 0.395500 0.233700 0.888300
vn 0.000000 0.233700 0.972300
vn -0.395500 0.233700 0.888300
vn -0.722600 0.233700 0.650600
vn -0.924700 0.233700 0.300500
vn -0.967000 0.233700 -0.101600
vn -0.842100 0.233700 -0.486200
vn 0.045300 -0.997000 -0.062400
vn -0.202200 0.233700 -0.951100
vn -0.571500 0.233700 -0.786600
vn 0.000000 -1.000000 0.000000
vn -0.585600 -0.086800 -0.806000
vn -0.207100 -0.086800 -0.974500
vn -0.862800 -0.086800 -0.498100
vn -0.990800 -0.086800 -0.104100
vn -0.947500 -0.086800 0.307900
vn -0.740300 -0.086800 0.666600
vn -0.405200 -0.086800 0.910100
vn 0.000000 -0.086800 0.996200
vn 0.405200 -0.086800 0.910100
vn 0.740300 -0.086800 0.666600
vn 0.947500 -0.086800 0.307900
vn 0.990800 -0.086800 -0.104100
vn 0.862800 -0.086800 -0.498100
vn 0.585600 -0.086800 -0.806000
vn 0.207100 -0.086800 -0.974500
vn -0.031400 -0.997000 0.070500
vn 0.000000 1.000000 0.000000
vn 0.000000 1.000000 0.000100
vn 0.000000 -0.233700 0.972300
vn 0.740300 0.086800 0.666600
vn -0.395500 -0.233700 0.888300
vn 0.947500 0.086800 0.307900
vn -0.722600 -0.233700 0.650600
vn 0.990800 0.086800 -0.104100
vn -0.924700 -0.233700 0.300500
vn 0.862800 0.086800 -0.498100
vn -0.585600 0.086800 -0.806000
vn -0.967000 -0.233700 -0.101600
vn 0.585600 0.086800 -0.806000
vn 0.207100 0.086800 -0.974500
vn -0.842100 -0.233700 -0.486200
vn 0.202200 -0.233700 -0.951100
vn -0.207100 0.086800 -0.974500
vn -0.202200 -0.233700 -0.951100
vn -0.571500 -0.233700 -0.786600
vn -0.862800 0.086800 -0.498100
vn 0.571500 -0.233700 -0.786600
vn -0.990800 0.086800 -0.104100
vn 0.842100 -0.233700 -0.486200
vn -0.947500 0.086800 0.307900
vn 0.967000 -0.233700 -0.101600
vn -0.740300 0.086800 0.666600
vn 0.924700 -0.233700 0.300500
vn -0.405200 0.086800 0.910100
vn 0.722600 -0.233700 0.650600
vn 0.000000 0.086800 0.996200
vn 0.395500 -0.233700 0.888300
vn 0.405200 0.086800 0.910100
vn 0.951100 0.000000 0.309000
vn 0.866000 0.000000 -0.500000
vn -0.073400 -0.997000 0.023800
vn 0.073400 -0.997000 0.023800
vn -0.045300 -0.997000 -0.062400
vn 0.016000 -0.997000 -0.075400
vn 0.031400 -0.997000 0.070500
vn -0.057300 -0.997000 0.051600
vn 0.066800 -0.997000 -0.038600
vn -0.076700 -0.997000 -0.008100
vn 0.057300 -0.997000 0.051600
vn -0.016000 -0.997000 -0.075400
vn -0.000000 -0.997000 0.077100
vn 0.076700 -0.997000 -0.008100
vn -0.066800 -0.997000 -0.038600
vn 0.994500 0.000000 -0.104500
vn 0.743100 0.000000 0.669100
vn 0.406700 0.000000 0.913500
vn 0.000000 0.000000 1.000000
vn -0.406700 0.000000 0.913500
vn -0.743100 0.000000 0.669100
vn -0.951100 0.000000 0.309000
vn -0.994500 0.000000 -0.104500
vn -0.866000 0.000000 -0.500000
vn -0.587800 0.000000 -0.809000
vn 0.207900 0.000000 -0.978100
vn -0.207900 0.000000 -0.978100
vn 0.587800 0.000000 -0.809000
s off
f 2//1 4//1 134//1
f 134//2 4//2 6//2
f 6//3 8//3 132//3
f 8//4 10//4 131//4
f 131//5 10//5 12//5
f 12//6 14//6 129//6
f 129//7 14//7 16//7
f 16//8 18//8 127//8
f 18//9 20//9 126//9
f 126//10 20//10 22//10
f 125//11 22//11 24//11
f 24//12 26//12 123//12
f 26//13 28//13 122//13
f 53//14 48//14 196//14
f 30//15 2//15 150//15
f 28//16 30//16 121//16
f 11//17 19//17 27//17
f 137//18 44//18 45//18
f 45//19 31//19 135//19
f 43//20 44//20 137//20
f 42//21 43//21 138//21
f 41//22 42//22 139//22
f 141//23 40//23 41//23
f 39//24 40//24 141//24
f 38//25 39//25 142//25
f 37//26 38//26 143//26
f 36//27 37//27 144//27
f 35//28 36//28 145//28
f 34//29 35//29 146//29
f 33//30 34//30 147//30
f 32//31 33//31 148//31
f 31//32 32//32 149//32
f 49//1 48//1 167//1
f 167//2 48//2 53//2
f 53//3 56//3 169//3
f 56//4 59//4 170//4
f 170//5 59//5 62//5
f 62//6 65//6 172//6
f 172//7 65//7 68//7
f 68//8 71//8 174//8
f 71//9 74//9 175//9
f 175//10 74//10 77//10
f 176//11 77//11 80//11
f 80//12 83//12 178//12
f 83//13 86//13 179//13
f 18//33 189//33 190//33
f 89//15 49//15 151//15
f 86//16 89//16 180//16
f 61//17 73//17 85//17
f 164//18 87//18 90//18
f 90//19 50//19 166//19
f 84//20 87//20 164//20
f 81//21 84//21 163//21
f 78//22 81//22 162//22
f 160//23 75//23 78//23
f 72//24 75//24 160//24
f 69//25 72//25 159//25
f 66//26 69//26 158//26
f 63//27 66//27 157//27
f 60//28 63//28 156//28
f 57//29 60//29 155//29
f 54//30 57//30 154//30
f 51//31 54//31 153//31
f 50//32 51//32 152//32
f 57//34 109//34 110//34
f 99//34 100//34 40//34
f 54//34 108//34 109//34
f 38//35 98//35 99//35
f 54//34 51//34 107//34
f 87//34 119//34 120//34
f 37//34 97//34 98//34
f 51//34 50//34 106//34
f 50//34 90//34 120//34
f 96//34 97//34 37//34
f 87//34 84//34 118//34
f 95//34 96//34 36//34
f 81//34 117//34 118//34
f 34//34 94//34 95//34
f 78//34 116//34 117//34
f 33//34 93//34 94//34
f 78//35 75//35 115//35
f 92//34 93//34 33//34
f 44//34 104//34 105//34
f 75//35 72//35 114//35
f 91//34 92//34 32//34
f 105//34 91//34 31//34
f 69//35 113//35 114//35
f 103//34 104//34 44//34
f 66//34 112//34 113//34
f 102//34 103//34 43//34
f 66//34 63//34 111//34
f 101//34 102//34 42//34
f 63//34 60//34 110//34
f 100//34 101//34 41//34
f 67//36 158//36 159//36
f 171//37 172//37 66//37
f 70//38 159//38 160//38
f 170//39 171//39 63//39
f 160//40 161//40 76//40
f 169//41 170//41 60//41
f 76//42 161//42 162//42
f 54//43 168//43 169//43
f 179//44 180//44 90//44
f 162//45 163//45 82//45
f 51//46 167//46 168//46
f 151//47 167//47 51//47
f 163//48 164//48 85//48
f 166//49 152//49 47//49
f 180//50 151//50 50//50
f 165//51 166//51 46//51
f 164//52 165//52 88//52
f 178//53 179//53 87//53
f 152//54 153//54 52//54
f 177//55 178//55 84//55
f 153//56 154//56 55//56
f 78//57 176//57 177//57
f 55//58 154//58 155//58
f 175//59 176//59 78//59
f 155//60 156//60 61//60
f 174//61 175//61 75//61
f 156//62 157//62 64//62
f 173//63 174//63 72//63
f 157//64 158//64 67//64
f 172//65 173//65 69//65
f 135//49 149//49 3//49
f 149//54 148//54 5//54
f 148//56 147//56 7//56
f 7//58 147//58 146//58
f 146//60 145//60 11//60
f 145//62 144//62 13//62
f 144//64 143//64 15//64
f 15//36 143//36 142//36
f 17//38 142//38 141//38
f 141//40 140//40 21//40
f 21//42 140//42 139//42
f 139//45 138//45 25//45
f 138//48 137//48 27//48
f 136//51 135//51 1//51
f 137//52 136//52 29//52
f 122//44 121//44 45//44
f 121//50 150//50 31//50
f 123//53 122//53 44//53
f 124//55 123//55 43//55
f 41//57 125//57 124//57
f 126//59 125//59 41//59
f 127//61 126//61 40//61
f 128//63 127//63 39//63
f 129//65 128//65 38//65
f 130//37 129//37 37//37
f 131//39 130//39 36//39
f 132//41 131//41 35//41
f 33//43 133//43 132//43
f 32//46 134//46 133//46
f 150//47 134//47 32//47
f 185//66 215//66 216//66
f 198//67 228//67 229//67
f 77//68 206//68 207//68
f 12//69 10//69 185//69
f 28//70 194//70 195//70
f 2//71 181//71 182//71
f 68//72 65//72 202//72
f 20//73 190//73 191//73
f 53//74 198//74 199//74
f 80//75 207//75 208//75
f 12//76 186//76 187//76
f 30//77 195//77 181//77
f 68//78 203//78 204//78
f 6//14 4//14 182//14
f 22//68 191//68 192//68
f 56//79 199//79 200//79
f 86//80 83//80 208//80
f 16//72 14//72 187//72
f 71//33 204//33 205//33
f 6//74 183//74 184//74
f 24//75 192//75 193//75
f 62//69 59//69 200//69
f 86//70 209//70 210//70
f 49//71 197//71 196//71
f 16//78 188//78 189//78
f 74//73 205//73 206//73
f 8//79 184//79 185//79
f 28//80 26//80 193//80
f 62//76 201//76 202//76
f 89//77 210//77 197//77
f 220//34 218//34 214//34
f 235//34 233//34 229//34
f 199//81 229//81 230//81
f 186//82 216//82 217//82
f 200//66 230//66 231//66
f 187//83 217//83 218//83
f 201//82 231//82 232//82
f 188//84 218//84 219//84
f 202//83 232//83 233//83
f 189//85 219//85 220//85
f 203//84 233//84 234//84
f 190//86 220//86 221//86
f 204//85 234//85 235//85
f 191//87 221//87 222//87
f 205//86 235//86 236//86
f 192//88 222//88 223//88
f 206//87 236//87 237//87
f 193//89 223//89 224//89
f 207//88 237//88 238//88
f 194//90 224//90 225//90
f 181//91 211//91 212//91
f 208//89 238//89 239//89
f 195//92 225//92 211//92
f 182//93 212//93 213//93
f 209//90 239//90 240//90
f 197//91 227//91 226//91
f 183//67 213//67 214//67
f 210//92 240//92 227//92
f 196//93 226//93 228//93
f 184//81 214//81 215//81
f 150//1 2//1 134//1
f 133//2 134//2 6//2
f 133//3 6//3 132//3
f 132//4 8//4 131//4
f 130//5 131//5 12//5
f 130//6 12//6 129//6
f 128//7 129//7 16//7
f 128//8 16//8 127//8
f 127//9 18//9 126//9
f 125//10 126//10 22//10
f 124//11 125//11 24//11
f 124//12 24//12 123//12
f 123//13 26//13 122//13
f 198//14 53//14 196//14
f 121//15 30//15 150//15
f 122//16 28//16 121//16
f 29//17 1//17 3//17
f 3//17 5//17 7//17
f 7//17 9//17 11//17
f 11//17 13//17 15//17
f 15//17 17//17 11//17
f 19//17 21//17 27//17
f 23//17 25//17 27//17
f 27//17 29//17 3//17
f 3//17 7//17 11//17
f 11//17 17//17 19//17
f 21//17 23//17 27//17
f 27//17 3//17 11//17
f 136//18 137//18 45//18
f 136//19 45//19 135//19
f 138//20 43//20 137//20
f 139//21 42//21 138//21
f 140//22 41//22 139//22
f 140//23 141//23 41//23
f 142//24 39//24 141//24
f 143//25 38//25 142//25
f 144//26 37//26 143//26
f 145//27 36//27 144//27
f 146//28 35//28 145//28
f 147//29 34//29 146//29
f 148//30 33//30 147//30
f 149//31 32//31 148//31
f 135//32 31//32 149//32
f 151//1 49//1 167//1
f 168//2 167//2 53//2
f 168//3 53//3 169//3
f 169//4 56//4 170//4
f 171//5 170//5 62//5
f 171//6 62//6 172//6
f 173//7 172//7 68//7
f 173//8 68//8 174//8
f 174//9 71//9 175//9
f 176//10 175//10 77//10
f 177//11 176//11 80//11
f 177//12 80//12 178//12
f 178//13 83//13 179//13
f 20//33 18//33 190//33
f 180//15 89//15 151//15
f 179//16 86//16 180//16
f 88//17 46//17 47//17
f 47//17 52//17 55//17
f 55//17 58//17 61//17
f 61//17 64//17 67//17
f 67//17 70//17 61//17
f 73//17 76//17 85//17
f 79//17 82//17 85//17
f 85//17 88//17 47//17
f 47//17 55//17 61//17
f 61//17 70//17 73//17
f 76//17 79//17 85//17
f 85//17 47//17 61//17
f 165//18 164//18 90//18
f 165//19 90//19 166//19
f 163//20 84//20 164//20
f 162//21 81//21 163//21
f 161//22 78//22 162//22
f 161//23 160//23 78//23
f 159//24 72//24 160//24
f 158//25 69//25 159//25
f 157//26 66//26 158//26
f 156//27 63//27 157//27
f 155//28 60//28 156//28
f 154//29 57//29 155//29
f 153//30 54//30 154//30
f 152//31 51//31 153//31
f 166//32 50//32 152//32
f 60//34 57//34 110//34
f 39//35 99//35 40//35
f 57//34 54//34 109//34
f 39//34 38//34 99//34
f 108//34 54//34 107//34
f 90//34 87//34 120//34
f 38//34 37//34 98//34
f 107//34 51//34 106//34
f 106//34 50//34 120//34
f 36//34 96//34 37//34
f 119//34 87//34 118//34
f 35//34 95//34 36//34
f 84//34 81//34 118//34
f 35//34 34//34 95//34
f 81//34 78//34 117//34
f 34//34 33//34 94//34
f 116//34 78//34 115//34
f 32//34 92//34 33//34
f 45//34 44//34 105//34
f 115//34 75//34 114//34
f 31//34 91//34 32//34
f 45//34 105//34 31//34
f 72//34 69//34 114//34
f 43//34 103//34 44//34
f 69//34 66//34 113//34
f 42//34 102//34 43//34
f 112//34 66//34 111//34
f 41//34 101//34 42//34
f 111//34 63//34 110//34
f 40//35 100//35 41//35
f 70//36 67//36 159//36
f 63//37 171//37 66//37
f 73//38 70//38 160//38
f 60//39 170//39 63//39
f 73//40 160//40 76//40
f 57//41 169//41 60//41
f 79//42 76//42 162//42
f 57//43 54//43 169//43
f 87//44 179//44 90//44
f 79//45 162//45 82//45
f 54//46 51//46 168//46
f 50//47 151//47 51//47
f 82//48 163//48 85//48
f 46//49 166//49 47//49
f 90//50 180//50 50//50
f 88//51 165//51 46//51
f 85//52 164//52 88//52
f 84//53 178//53 87//53
f 47//54 152//54 52//54
f 81//55 177//55 84//55
f 52//56 153//56 55//56
f 81//57 78//57 177//57
f 58//58 55//58 155//58
f 75//59 175//59 78//59
f 58//60 155//60 61//60
f 72//61 174//61 75//61
f 61//62 156//62 64//62
f 69//63 173//63 72//63
f 64//64 157//64 67//64
f 66//65 172//65 69//65
f 1//49 135//49 3//49
f 3//54 149//54 5//54
f 5//56 148//56 7//56
f 9//58 7//58 146//58
f 9//60 146//60 11//60
f 11//62 145//62 13//62
f 13//64 144//64 15//64
f 17//36 15//36 142//36
f 19//38 17//38 141//38
f 19//40 141//40 21//40
f 23//42 21//42 139//42
f 23//45 139//45 25//45
f 25//48 138//48 27//48
f 29//51 136//51 1//51
f 27//52 137//52 29//52
f 44//44 122//44 45//44
f 45//50 121//50 31//50
f 43//53 123//53 44//53
f 42//55 124//55 43//55
f 42//57 41//57 124//57
f 40//59 126//59 41//59
f 39//61 127//61 40//61
f 38//63 128//63 39//63
f 37//65 129//65 38//65
f 36//37 130//37 37//37
f 35//39 131//39 36//39
f 34//41 132//41 35//41
f 34//43 33//43 132//43
f 33//46 32//46 133//46
f 31//47 150//47 32//47
f 186//66 185//66 216//66
f 199//67 198//67 229//67
f 80//68 77//68 207//68
f 186//69 12//69 185//69
f 30//70 28//70 195//70
f 4//71 2//71 182//71
f 203//72 68//72 202//72
f 22//73 20//73 191//73
f 56//74 53//74 199//74
f 83//75 80//75 208//75
f 14//76 12//76 187//76
f 2//77 30//77 181//77
f 71//78 68//78 204//78
f 183//14 6//14 182//14
f 24//68 22//68 192//68
f 59//79 56//79 200//79
f 209//80 86//80 208//80
f 188//72 16//72 187//72
f 74//33 71//33 205//33
f 8//74 6//74 184//74
f 26//75 24//75 193//75
f 201//69 62//69 200//69
f 89//70 86//70 210//70
f 48//71 49//71 196//71
f 18//78 16//78 189//78
f 77//73 74//73 206//73
f 10//79 8//79 185//79
f 194//80 28//80 193//80
f 65//76 62//76 202//76
f 49//77 89//77 197//77
f 213//34 212//34 214//34
f 211//34 225//34 224//34
f 224//34 223//34 211//34
f 222//34 221//34 220//34
f 220//34 219//34 218//34
f 218//34 217//34 216//34
f 216//34 215//34 214//34
f 214//34 212//34 211//34
f 211//34 223//34 222//34
f 222//34 220//34 214//34
f 218//34 216//34 214//34
f 214//34 211//34 222//34
f 228//34 226//34 229//34
f 227//34 240//34 239//34
f 239//34 238//34 227//34
f 237//34 236//34 235//34
f 235//34 234//34 233//34
f 233//34 232//34 231//34
f 231//34 230//34 229//34
f 229//34 226//34 227//34
f 227//34 238//34 237//34
f 237//34 235//34 229//34
f 233//34 231//34 229//34
f 229//34 227//34 237//34
f 200//81 199//81 230//81
f 187//82 186//82 217//82
f 201//66 200//66 231//66
f 188//83 187//83 218//83
f 202//82 201//82 232//82
f 189//84 188//84 219//84
f 203//83 202//83 233//83
f 190//85 189//85 220//85
f 204//84 203//84 234//84
f 191//86 190//86 221//86
f 205//85 204//85 235//85
f 192//87 191//87 222//87
f 206//86 205//86 236//86
f 193//88 192//88 223//88
f 207//87 206//87 237//87
f 194//89 193//89 224//89
f 208//88 207//88 238//88
f 195//90 194//90 225//90
f 182//91 181//91 212//91
f 209//89 208//89 239//89
f 181//92 195//92 211//92
f 183//93 182//93 213//93
f 210//90 209//90 240//90
f 196//91 197//91 226//91
f 184//67 183//67 214//67
f 197//92 210//92 227//92
f 198//93 196//93 228//93
f 185//81 184//81 215//81
